# xmcd
#
# Track frame offsets: 
#        150
#        11849
#        24011
#        35658
#        46709
#        56030
#        68187
#        79743
#        91611
#        102559
#        112938
#        124894
#        135312
#        148185
#        159723
#        171629
#        182665
#        193447
#        209626
#        220969
#        232446
#        247765
#        259072
#        277782
#        289676
#        299784
#        311529
#        323408
#
# Disc length: 4465 seconds
#
# Revision: 0
# Processed by: cddbd v1.5.2PL0 Copyright (c) Steve Scherf et al.
# Submitted via: ExactAudioCopy v0.99pb5
#
DISCID=a8116f1c
DTITLE=Bobby Bland - That's The Way Love Is
DYEAR=2015
DGENRE=Soul
TTITLE0=Two Steps From The Blues
TTITLE1=Cry, Cry, Cry
TTITLE2=I'm Not Ashamed
TTITLE3=Don't Cry No More
TTITLE4=Lead Me On
TTITLE5=I Pity The Fool
TTITLE6=I've Just Got To Forget You
TTITLE7=Little Boy Blue
TTITLE8=St. James Infirmary
TTITLE9=I'll Take Care Of You
TTITLE10=Don't want No Woman
TTITLE11=I've Been Wrong So Long
TTITLE12=36.22.36
TTITLE13=You're The One (That I Adore)
TTITLE14=Turn On Your Lovelight
TTITLE15=Who Will The Next Fool Be
TTITLE16=You're Worth It All
TTITLE17=Blues In The Night
TTITLE18=Your Friends
TTITLE19=Ain't That Loving You
TTITLE20=Jelly, Jelly, Jelly
TTITLE21=Twistin' Up The Road
TTITLE22=Stormy Monday Blues
TTITLE23=How Does a Cheating Woman Feel
TTITLE24=Blue Moon
TTITLE25=Yield Not To Temptation
TTITLE26=That's The Way Love Is
TTITLE27=Call On Me
EXTD=
EXTT0=
EXTT1=
EXTT2=
EXTT3=
EXTT4=
EXTT5=
EXTT6=
EXTT7=
EXTT8=
EXTT9=
EXTT10=
EXTT11=
EXTT12=
EXTT13=
EXTT14=
EXTT15=
EXTT16=
EXTT17=
EXTT18=
EXTT19=
EXTT20=
EXTT21=
EXTT22=
EXTT23=
EXTT24=
EXTT25=
EXTT26=
EXTT27=
PLAYORDER=
